<svg xmlns="http://www.w3.org/2000/svg" width="58.145" height="58.145" viewBox="0 0 58.145 58.145">
  <g id="Group_108" data-name="Group 108" transform="translate(-26.34 -224.264)">
    <path id="Path_188" data-name="Path 188" d="M84.485,253.336a29.072,29.072,0,1,0-29.072,29.073,29.125,29.125,0,0,0,29.072-29.073Z" transform="translate(0)" fill="#324a5e" fill-rule="evenodd"/>
    <path id="Path_189" data-name="Path 189" d="M89.813,243.838H83.591l-7.957-16.355a29.142,29.142,0,0,1,5.475-1.632l5.644,11.629.374.748h0l.34.714,1.7,3.5.341.714h0Z" transform="translate(-31.341 -1.009)" fill="#f1543f" fill-rule="evenodd"/>
    <path id="Path_190" data-name="Path 190" d="M100.589,279.459H94.127a.44.44,0,0,1-.441-.341l-1.292-4.08a1.832,1.832,0,0,1,.306-1.666,1.852,1.852,0,0,1,1.5-.748h6.324a1.918,1.918,0,0,1,1.53.748,1.727,1.727,0,0,1,.272,1.666l-1.224,4.08a.594.594,0,0,1-.509.341Zm-6.155-.952h5.815l1.122-3.74a.788.788,0,0,0-.136-.816.861.861,0,0,0-.748-.374H94.2a1,1,0,0,0-.748.374.869.869,0,0,0-.136.816Z" transform="translate(-41.946 -30.747)" fill="#fff" fill-rule="evenodd"/>
    <path id="Path_191" data-name="Path 191" d="M92.607,295.99h0a2.483,2.483,0,0,0,0-3.536h0a2.438,2.438,0,0,1-.51-2.754h0a2.556,2.556,0,0,0-1.394-3.3h0a2.473,2.473,0,0,1-1.564-2.312h0a2.532,2.532,0,0,0-2.516-2.516h0a2.59,2.59,0,0,1-2.346-1.564h0a2.506,2.506,0,0,0-3.265-1.394h0a2.571,2.571,0,0,1-2.754-.51h0a2.465,2.465,0,0,0-3.57,0h0a2.44,2.44,0,0,1-2.755.51h0a2.506,2.506,0,0,0-3.264,1.394h0a2.486,2.486,0,0,1-2.346,1.564h0a2.533,2.533,0,0,0-2.516,2.516h0a2.508,2.508,0,0,1-1.564,2.312h0a2.512,2.512,0,0,0-1.36,3.3h0a2.6,2.6,0,0,1-.544,2.754h0a2.482,2.482,0,0,0,0,3.536h0a2.506,2.506,0,0,1,.544,2.754h0a2.513,2.513,0,0,0,1.36,3.3h0a2.472,2.472,0,0,1,1.564,2.312h0a2.533,2.533,0,0,0,2.516,2.516h0a2.572,2.572,0,0,1,2.346,1.565h0a2.506,2.506,0,0,0,3.264,1.394h0a2.57,2.57,0,0,1,2.755.51h0a2.465,2.465,0,0,0,3.57,0h0a2.436,2.436,0,0,1,2.754-.51h0a2.506,2.506,0,0,0,3.265-1.394h0a2.571,2.571,0,0,1,2.346-1.565h0a2.532,2.532,0,0,0,2.516-2.516h0a2.506,2.506,0,0,1,1.564-2.312h0a2.557,2.557,0,0,0,1.394-3.3h0a2.483,2.483,0,0,1,.51-2.754Z" transform="translate(-21.146 -33.745)" fill="#ffd05b" fill-rule="evenodd"/>
    <path id="Path_192" data-name="Path 192" d="M97.018,302.8a11.952,11.952,0,1,0-11.935,11.969A11.957,11.957,0,0,0,97.018,302.8Z" transform="translate(-29.738 -42.322)" fill="#f9b54c" fill-rule="evenodd"/>
    <path id="Path_193" data-name="Path 193" d="M111.847,227.483l-7.957,16.355H97.668l.34-.68.306-.714,1.734-3.5.341-.714.374-.748,5.644-11.629a29.584,29.584,0,0,1,5.441,1.632Z" transform="translate(-45.35 -1.009)" fill="#ff7058" fill-rule="evenodd"/>
  </g>
</svg>
