<svg xmlns="http://www.w3.org/2000/svg" width="58.145" height="58.109" viewBox="0 0 58.145 58.109">
  <g id="Group_109" data-name="Group 109" transform="translate(-225.291 -227.438)">
    <path id="Path_215" data-name="Path 215" d="M283.436,256.475a29.072,29.072,0,1,1-29.072-29.037,29.072,29.072,0,0,1,29.072,29.037Z" transform="translate(0 0)" fill="#ffd05b" fill-rule="evenodd"/>
    <path id="Path_216" data-name="Path 216" d="M294.636,298.486l.353,8.205c-7.746,7.887-21.681,7.038-28.117.248l-.035-8.029L280.17,304.5l14.466-6.012Z" transform="translate(-25.807 -44.133)" fill="#2b3b4e" fill-rule="evenodd"/>
    <path id="Path_217" data-name="Path 217" d="M240.976,281.342l23.131-8.064,23.131,8.064-23.131,8.064Z" transform="translate(-9.743 -28.474)" fill="#324a5e" fill-rule="evenodd"/>
    <path id="Path_218" data-name="Path 218" d="M273.9,287.335l-15.562,4.209a.247.247,0,0,0-.212.282l-.071,6.933a1.373,1.373,0,0,1,.849,1.308,1.323,1.323,0,0,1-1.309,1.379,1.345,1.345,0,0,1-1.309-1.379,1.394,1.394,0,0,1,.778-1.274l.106-7.569a.458.458,0,0,1,.353-.53l15.774-4.208c.566-.177,1.132.46.6.849Z" transform="translate(-19.254 -36.66)" fill="#ff7058" fill-rule="evenodd"/>
  </g>
</svg>
